<svg xmlns="http://www.w3.org/2000/svg" width="1024" height="1024" viewBox="0 0 1024 1024"><g stroke-linecap="round" stroke-linejoin="round"><rect width="1024" height="1024" fill="#C3DCF2"/><g transform="translate(0 -24)"><g fill="#F6F2E9" stroke="#1C1C22" stroke-width="12"><g transform="rotate(-16 512 805)"><rect x="492" y="795" width="40" height="175" rx="20"/></g><g transform="rotate(16 512 805)"><rect x="492" y="795" width="40" height="175" rx="20"/></g><rect x="492" y="795" width="40" height="175" rx="20"/></g><g fill="#6B625C" stroke="#1C1C22" stroke-width="12"><rect x="442" y="845" width="44" height="100" rx="18"/><rect x="538" y="845" width="44" height="100" rx="18"/><ellipse cx="462" cy="950" rx="48" ry="20"/><ellipse cx="562" cy="950" rx="48" ry="20"/></g><path d="M 446 940 L 446 958 M 478 940 L 478 958 M 546 940 L 546 958 M 578 940 L 578 958" stroke="#1C1C22" stroke-width="5" fill="none"/><ellipse cx="512" cy="640" rx="205" ry="218" fill="#3A3230" stroke="#1C1C22" stroke-width="14"/><path d="M 340 585 Q 250 620 268 720 Q 320 770 372 720 Q 380 640 340 585 Z" fill="#4A403C" stroke="#1C1C22" stroke-width="12"/><path d="M 320 640 Q 295 680 300 715 M 348 630 Q 330 675 336 715" stroke="#1C1C22" stroke-width="6" fill="none"/><path d="M 684 585 Q 774 620 756 720 Q 704 770 652 720 Q 644 640 684 585 Z" fill="#4A403C" stroke="#1C1C22" stroke-width="12"/><path d="M 704 640 Q 729 680 724 715 M 676 630 Q 694 675 688 715" stroke="#1C1C22" stroke-width="6" fill="none"/><ellipse cx="512" cy="350" rx="238" ry="218" fill="#3A3230" stroke="#1C1C22" stroke-width="14"/><path d="M 470 382 Q 452 300 490 240 Q 512 210 540 226 Q 560 240 552 280 Q 544 330 556 382 Z" fill="#E8862B" stroke="#1C1C22" stroke-width="12"/><g transform="translate(0 0)"><path d="M 442 442 Q 476 468 512 468 Q 548 468 582 442 Q 604 458 592 488 Q 562 516 512 516 Q 462 516 432 488 Q 420 458 442 442 Z" fill="#F2A93B" stroke="#1C1C22" stroke-width="12"/></g><path d="M 418 372 Q 428 342 512 338 Q 596 342 606 372 Q 616 402 584 430 Q 548 458 512 458 Q 476 458 440 430 Q 408 402 418 372 Z" fill="#F2A93B" stroke="#1C1C22" stroke-width="12"/><circle cx="466" cy="386" r="8" fill="#262626" opacity="0.85"/><circle cx="558" cy="386" r="8" fill="#262626" opacity="0.85"/><path d="M 446 452 Q 512 480 578 452" fill="none" stroke="#1C1C22" stroke-width="10"/><ellipse cx="402" cy="322" rx="42" ry="54" fill="#FFFFFF"/><ellipse cx="622" cy="322" rx="42" ry="54" fill="#FFFFFF"/><circle cx="402" cy="326" r="22" fill="#262626"/><circle cx="622" cy="326" r="22" fill="#262626"/><circle cx="411" cy="310" r="10" fill="#FFFFFF"/><circle cx="631" cy="310" r="10" fill="#FFFFFF"/><circle cx="392" cy="338" r="4" fill="#FFFFFF"/><circle cx="612" cy="338" r="4" fill="#FFFFFF"/><path d="M 366 280 Q 354 266 342 260 M 384 270 Q 378 252 368 244" stroke="#1C1C22" stroke-width="8" fill="none"/><path d="M 658 280 Q 670 266 682 260 M 640 270 Q 646 252 656 244" stroke="#1C1C22" stroke-width="8" fill="none"/></g></g></svg>