<svg xmlns="http://www.w3.org/2000/svg" width="1024" height="1024" viewBox="0 0 1024 1024"><g stroke-linecap="round" stroke-linejoin="round"><rect width="1024" height="1024" fill="#CFE9B8"/><circle cx="718" cy="768" r="42" fill="#2F2F38" stroke="#1C1C22" stroke-width="12"/><rect x="430" y="860" width="88" height="90" rx="42" fill="#2F2F38" stroke="#1C1C22" stroke-width="12"/><rect x="506" y="860" width="88" height="90" rx="42" fill="#2F2F38" stroke="#1C1C22" stroke-width="12"/><path d="M 458 900 L 458 938 M 490 900 L 490 938 M 534 900 L 534 938 M 566 900 L 566 938" stroke="#565664" stroke-width="6" fill="none"/><ellipse cx="512" cy="690" rx="195" ry="215" fill="#2F2F38" stroke="#1C1C22" stroke-width="14"/><clipPath id="momo-body-clip"><ellipse cx="512" cy="690" rx="195" ry="215"/></clipPath><g clip-path="url(#momo-body-clip)"><ellipse cx="512" cy="652" rx="215" ry="82" fill="#F7F3E8"/><ellipse cx="512" cy="824" rx="128" ry="86" fill="#F7F3E8"/></g><ellipse cx="512" cy="690" rx="195" ry="215" fill="none" stroke="#1C1C22" stroke-width="14"/><g transform="rotate(14 322 700)"><ellipse cx="322" cy="700" rx="52" ry="78" fill="#2F2F38" stroke="#1C1C22" stroke-width="12"/></g><g transform="rotate(-14 702 700)"><ellipse cx="702" cy="700" rx="52" ry="78" fill="#2F2F38" stroke="#1C1C22" stroke-width="12"/></g><circle cx="318" cy="172" r="62" fill="#2F2F38" stroke="#1C1C22" stroke-width="12"/><circle cx="706" cy="172" r="62" fill="#2F2F38" stroke="#1C1C22" stroke-width="12"/><clipPath id="momo-ear-l"><circle cx="318" cy="172" r="62"/></clipPath><clipPath id="momo-ear-r"><circle cx="706" cy="172" r="62"/></clipPath><g clip-path="url(#momo-ear-l)"><ellipse cx="310" cy="122" rx="52" ry="34" fill="#F7F3E8"/></g><g clip-path="url(#momo-ear-r)"><ellipse cx="714" cy="122" rx="52" ry="34" fill="#F7F3E8"/></g><ellipse cx="512" cy="375" rx="252" ry="230" fill="#2F2F38" stroke="#1C1C22" stroke-width="14"/><ellipse cx="512" cy="492" rx="142" ry="88" fill="#45454F"/><ellipse cx="474" cy="468" rx="11" ry="16" fill="#262626"/><ellipse cx="550" cy="468" rx="11" ry="16" fill="#262626"/><ellipse cx="418" cy="362" rx="40" ry="50" fill="#FFFFFF"/><ellipse cx="606" cy="362" rx="40" ry="50" fill="#FFFFFF"/><circle cx="418" cy="366" r="21" fill="#262626"/><circle cx="606" cy="366" r="21" fill="#262626"/><circle cx="427" cy="352" r="9" fill="#FFFFFF"/><circle cx="615" cy="352" r="9" fill="#FFFFFF"/><circle cx="408" cy="376" r="4" fill="#FFFFFF"/><circle cx="596" cy="376" r="4" fill="#FFFFFF"/><ellipse cx="352" cy="462" rx="42" ry="24" fill="#EFA3AC" opacity="0.55"/><ellipse cx="672" cy="462" rx="42" ry="24" fill="#EFA3AC" opacity="0.55"/><path d="M 445 528 Q 512 556 579 528" fill="none" stroke="#1C1C22" stroke-width="11"/></g></svg>